<svg xmlns="http://www.w3.org/2000/svg" width="166.63" height="35" viewBox="0 0 166.63 35"><rect class="svg__rect" x="0" y="0" width="88.08" height="35" fill="#5D9741"/><rect class="svg__rect" x="86.08" y="0" width="80.55" height="35" fill="#C1D72F"/><path class="svg__text" d="M15.70 22L14.22 22L14.22 13.47L17.48 13.47Q18.91 13.47 19.75 14.21Q20.59 14.96 20.59 16.18L20.59 16.18Q20.59 17.44 19.77 18.13Q18.95 18.83 17.46 18.83L17.46 18.83L15.70 18.83L15.70 22ZM15.70 14.66L15.70 17.64L17.48 17.64Q18.27 17.64 18.69 17.27Q19.10 16.90 19.10 16.19L19.10 16.19Q19.10 15.50 18.68 15.09Q18.26 14.68 17.52 14.66L17.52 14.66L15.70 14.66ZM26.91 18.86L24.05 13.47L25.70 13.47L27.66 17.51L29.62 13.47L31.26 13.47L28.40 18.86L28.40 22L26.91 22L26.91 18.86ZM36.86 14.66L34.22 14.66L34.22 13.47L40.99 13.47L40.99 14.66L38.33 14.66L38.33 22L36.86 22L36.86 14.66ZM46.23 22L44.74 22L44.74 13.47L46.23 13.47L46.23 17.02L50.04 17.02L50.04 13.47L51.52 13.47L51.52 22L50.04 22L50.04 18.21L46.23 18.21L46.23 22ZM55.99 18.00L55.99 18.00L55.99 17.52Q55.99 16.28 56.43 15.32Q56.87 14.37 57.68 13.86Q58.48 13.35 59.53 13.35Q60.57 13.35 61.38 13.85Q62.18 14.35 62.62 15.29Q63.06 16.23 63.07 17.48L63.07 17.48L63.07 17.96Q63.07 19.21 62.63 20.16Q62.20 21.10 61.39 21.61Q60.59 22.12 59.54 22.12L59.54 22.12Q58.50 22.12 57.69 21.61Q56.88 21.10 56.44 20.17Q55.99 19.23 55.99 18.00ZM57.47 17.46L57.47 17.96Q57.47 19.36 58.02 20.13Q58.57 20.90 59.54 20.90L59.54 20.90Q60.52 20.90 61.05 20.15Q61.58 19.40 61.58 17.96L61.58 17.96L61.58 17.51Q61.58 16.09 61.05 15.34Q60.51 14.58 59.53 14.58L59.53 14.58Q58.57 14.58 58.02 15.33Q57.48 16.09 57.47 17.46L57.47 17.46ZM69.01 22L67.53 22L67.53 13.47L69.01 13.47L72.83 19.54L72.83 13.47L74.30 13.47L74.30 22L72.82 22L69.01 15.95L69.01 22Z" fill="#FFFFFF"/><path class="svg__text" d="M102.65 22L100.27 22L100.27 13.60L106.86 13.60L106.86 15.44L102.65 15.44L102.65 17.28L106.36 17.28L106.36 19.12L102.65 19.12L102.65 22ZM117.84 22L111.45 22L111.45 13.60L113.83 13.60L113.83 20.11L117.84 20.11L117.84 22ZM123.68 22L121.25 22L124.96 13.60L127.30 13.60L131.02 22L128.55 22L127.89 20.37L124.34 20.37L123.68 22ZM126.11 15.93L125.03 18.61L127.19 18.61L126.11 15.93ZM134.59 21.24L134.59 21.24L135.37 19.49Q135.93 19.86 136.67 20.09Q137.42 20.32 138.14 20.32L138.14 20.32Q139.50 20.32 139.51 19.64L139.51 19.64Q139.51 19.28 139.12 19.11Q138.73 18.93 137.86 18.74L137.86 18.74Q136.91 18.53 136.28 18.30Q135.64 18.06 135.19 17.55Q134.73 17.03 134.73 16.16L134.73 16.16Q134.73 15.39 135.15 14.77Q135.57 14.15 136.41 13.79Q137.24 13.43 138.45 13.43L138.45 13.43Q139.27 13.43 140.08 13.62Q140.89 13.80 141.50 14.17L141.50 14.17L140.77 15.93Q139.57 15.28 138.44 15.28L138.44 15.28Q137.73 15.28 137.40 15.49Q137.08 15.70 137.08 16.04L137.08 16.04Q137.08 16.37 137.47 16.54Q137.85 16.71 138.70 16.89L138.70 16.89Q139.66 17.10 140.29 17.33Q140.92 17.56 141.38 18.07Q141.85 18.58 141.85 19.46L141.85 19.46Q141.85 20.21 141.43 20.83Q141.01 21.44 140.17 21.80Q139.33 22.17 138.13 22.17L138.13 22.17Q137.11 22.17 136.14 21.92Q135.18 21.67 134.59 21.24ZM148.78 22L146.42 22L146.42 13.60L148.78 13.60L148.78 17.09L152.03 13.60L154.64 13.60L151.22 17.32L154.82 22L152.06 22L149.66 18.95L148.78 19.90L148.78 22Z" fill="#FFFFFF" x="99.08"/></svg>